<svg data-v-423bf9ae="" xmlns="http://www.w3.org/2000/svg" viewBox="0 0 268 91" class="iconLeft"><!----><!----><!----><g data-v-423bf9ae="" id="9d21ba03-327f-487f-bd92-fdf89dfa447e" fill="black" transform="matrix(4.2105263157894735,0,0,4.2105263157894735,112.19232522029627,9.105261708560747)"><path d="M9.62 11.73L9.62 11.73Q9.66 11.82 9.66 11.91L9.66 11.91L9.66 11.91Q9.66 12.08 9.53 12.21L9.53 12.21L9.53 12.21Q9.41 12.33 9.24 12.33L9.24 12.33L9.24 12.33Q8.96 12.33 8.85 12.07L8.85 12.07L7.81 9.59L2.11 9.59L1.08 12.07L1.08 12.07Q0.98 12.33 0.69 12.33L0.69 12.33L0.69 12.33Q0.49 12.33 0.38 12.21L0.38 12.21L0.38 12.21Q0.27 12.08 0.27 11.91L0.27 11.91L0.27 11.91Q0.27 11.82 0.31 11.73L0.31 11.73L4.55 1.69L4.55 1.69Q4.66 1.40 4.96 1.40L4.96 1.40L4.96 1.40Q5.24 1.40 5.36 1.69L5.36 1.69L9.62 11.73ZM2.44 8.83L7.49 8.83L4.96 2.79L2.44 8.83ZM14.60 4.58L14.60 4.58Q15.62 4.58 16.43 5.00L16.43 5.00L16.43 5.00Q17.23 5.42 17.69 6.22L17.69 6.22L17.69 6.22Q18.14 7.03 18.14 8.15L18.14 8.15L18.14 11.91L18.14 11.91Q18.14 12.10 18.02 12.21L18.02 12.21L18.02 12.21Q17.91 12.33 17.72 12.33L17.72 12.33L17.72 12.33Q17.54 12.33 17.42 12.21L17.42 12.21L17.42 12.21Q17.30 12.10 17.30 11.91L17.30 11.91L17.30 8.15L17.30 8.15Q17.30 6.82 16.55 6.12L16.55 6.12L16.55 6.12Q15.81 5.42 14.60 5.42L14.60 5.42L14.60 5.42Q13.86 5.42 13.25 5.70L13.25 5.70L13.25 5.70Q12.64 5.99 12.29 6.50L12.29 6.50L12.29 6.50Q11.94 7.01 11.94 7.63L11.94 7.63L11.94 11.91L11.94 11.91Q11.94 12.10 11.83 12.21L11.83 12.21L11.83 12.21Q11.72 12.33 11.52 12.33L11.52 12.33L11.52 12.33Q11.34 12.33 11.22 12.21L11.22 12.21L11.22 12.21Q11.10 12.10 11.10 11.91L11.10 11.91L11.10 5.10L11.10 5.10Q11.10 4.90 11.22 4.79L11.22 4.79L11.22 4.79Q11.34 4.68 11.52 4.68L11.52 4.68L11.52 4.68Q11.72 4.68 11.83 4.79L11.83 4.79L11.83 4.79Q11.94 4.90 11.94 5.10L11.94 5.10L11.94 5.82L11.94 5.82Q12.42 5.24 13.10 4.91L13.10 4.91L13.10 4.91Q13.79 4.58 14.60 4.58L14.60 4.58ZM27.51 1.40L27.51 1.40Q27.71 1.40 27.82 1.51L27.82 1.51L27.82 1.51Q27.93 1.62 27.93 1.82L27.93 1.82L27.93 8.55L27.93 8.58L27.93 8.58Q27.92 9.66 27.40 10.54L27.40 10.54L27.40 10.54Q26.88 11.42 25.99 11.92L25.99 11.92L25.99 11.92Q25.10 12.42 24.02 12.42L24.02 12.42L24.02 12.42Q22.92 12.42 22.02 11.91L22.02 11.91L22.02 11.91Q21.13 11.40 20.62 10.50L20.62 10.50L20.62 10.50Q20.10 9.60 20.10 8.50L20.10 8.50L20.10 8.50Q20.10 7.41 20.62 6.51L20.62 6.51L20.62 6.51Q21.13 5.61 22.02 5.10L22.02 5.10L22.02 5.10Q22.92 4.59 24.02 4.59L24.02 4.59L24.02 4.59Q25.02 4.59 25.82 5.02L25.82 5.02L25.82 5.02Q26.63 5.45 27.09 6.19L27.09 6.19L27.09 1.82L27.09 1.82Q27.09 1.62 27.21 1.51L27.21 1.51L27.21 1.51Q27.33 1.40 27.51 1.40L27.51 1.40ZM24.02 11.63L24.02 11.63Q24.89 11.63 25.59 11.22L25.59 11.22L25.59 11.22Q26.29 10.81 26.69 10.09L26.69 10.09L26.69 10.09Q27.09 9.38 27.09 8.50L27.09 8.50L27.09 8.50Q27.09 7.62 26.69 6.90L26.69 6.90L26.69 6.90Q26.29 6.19 25.59 5.78L25.59 5.78L25.59 5.78Q24.89 5.38 24.02 5.38L24.02 5.38L24.02 5.38Q23.16 5.38 22.46 5.78L22.46 5.78L22.46 5.78Q21.76 6.19 21.35 6.90L21.35 6.90L21.35 6.90Q20.94 7.62 20.94 8.50L20.94 8.50L20.94 8.50Q20.94 9.38 21.35 10.09L21.35 10.09L21.35 10.09Q21.76 10.81 22.46 11.22L22.46 11.22L22.46 11.22Q23.16 11.63 24.02 11.63L24.02 11.63ZM36.54 4.69L36.54 4.69Q36.81 4.80 36.81 5.01L36.81 5.01L36.81 5.01Q36.81 5.07 36.75 5.21L36.75 5.21L32.05 15.40L32.05 15.40Q31.92 15.65 31.72 15.65L31.72 15.65L31.72 15.65Q31.64 15.65 31.53 15.61L31.53 15.61L31.53 15.61Q31.26 15.50 31.26 15.29L31.26 15.29L31.26 15.29Q31.26 15.23 31.32 15.09L31.32 15.09L32.72 12.07L32.72 12.07Q32.70 12.05 32.66 11.97L32.66 11.97L29.60 5.25L29.60 5.25Q29.54 5.14 29.54 5.03L29.54 5.03L29.54 5.03Q29.54 4.82 29.78 4.70L29.78 4.70L29.78 4.70Q29.89 4.65 30.00 4.65L30.00 4.65L30.00 4.65Q30.21 4.65 30.32 4.89L30.32 4.89L33.17 11.10L36.02 4.90L36.02 4.90Q36.15 4.65 36.34 4.65L36.34 4.65L36.34 4.65Q36.44 4.65 36.54 4.69L36.54 4.69Z"></path></g><!----><g data-v-423bf9ae="" id="054406b2-93ac-4236-8c6d-c15ea214b7b3" transform="matrix(1.1097273009747537,0,0,1.1097273009747537,-10.789510887231593,-10.036922973282607)" stroke="none" fill="black"><path d="M61.05 19.843h33.303v1.376H61.05zM50.802 90.551c6.73 0 13.071-1.649 18.658-4.551h-4.192v-2.269h-.762v-1.376h1.667v-1.603h1.833v-.854h3.151v-.689H58.006v-1.375h3v-1.245h1.667v-1.983h1.833v-1.059h19.3c.226-.316.454-.63.672-.952H58.006v-1.376H85.36a40.337 40.337 0 0 0 5.809-17.539H10.426c1.86 20.671 19.222 36.871 40.376 36.871z"></path><path d="M65.883 25.769v-1.245h1.667V22.54h1.833v-2.01h-6.5v-1.376H77.11C70.026 13.108 60.844 9.45 50.802 9.45c-22.395 0-40.55 18.155-40.55 40.55 0 .563.02 1.122.042 1.679h81c.022-.559.059-1.115.059-1.679 0-1.557-.097-3.091-.268-4.603H64.962v-1.703h1.833v-1.498h1.667v-1.981h1.683v-2.134h3.151v-.654h1.833v-1.21h1.667V35.17h-.762v-1.235h-5.89v-2.269h-.762V30.29h1.667v-1.603h1.833v-.855H61.05v-1.376h1.833v-.688h3zM33.349 46.486c-6.25 0-11.315-5.066-11.315-11.315 0-6.25 5.065-11.315 11.315-11.315 6.249 0 11.314 5.065 11.314 11.315.001 6.248-5.065 11.315-11.314 11.315z"></path></g><!----></svg>